<?xml version="1.0" standalone="no"?>
<!DOCTYPE svg PUBLIC "-//W3C//DTD SVG 20010904//EN"
 "http://www.w3.org/TR/2001/REC-SVG-20010904/DTD/svg10.dtd">
<svg version="1.0" xmlns="http://www.w3.org/2000/svg"
 width="512.000000pt" height="512.000000pt" viewBox="0 0 512.000000 512.000000"
 preserveAspectRatio="xMidYMid meet">
<metadata>
Created by potrace 1.14, written by Peter Selinger 2001-2017
</metadata>
<g transform="translate(0.000000,512.000000) scale(0.100000,-0.100000)"
fill="#000000" stroke="none">
<path d="M2378 5115 c-1 -1 -39 -5 -82 -9 -44 -4 -82 -9 -85 -11 -4 -2 -34 -7
-66 -10 -86 -10 -312 -68 -434 -110 -931 -325 -1602 -1178 -1697 -2160 -15
-151 -9 -471 11 -595 3 -19 10 -64 16 -100 23 -148 86 -368 147 -520 38 -96
119 -261 136 -278 7 -7 29 -14 49 -15 35 -2 41 -7 92 -87 l56 -84 -17 -61
c-24 -84 -31 -538 -9 -638 45 -211 225 -386 440 -426 28 -6 253 -10 502 -10
l452 -1 56 30 c56 30 65 31 145 15 54 -11 69 -13 165 -26 157 -20 516 -17 660
7 118 19 161 27 240 45 98 22 331 98 404 131 400 180 690 397 975 728 179 207
384 582 463 845 19 66 64 237 68 263 3 19 7 37 9 41 3 4 8 34 11 66 4 33 9 62
10 65 18 30 26 460 13 600 -41 407 -181 805 -403 1145 -106 162 -229 313 -259
316 -17 2 -20 2 -47 -5 -22 -5 -35 3 -82 50 -55 55 -56 58 -50 100 5 40 3 45
-33 80 -71 66 -257 199 -394 281 -47 29 -276 143 -285 143 -4 0 -21 6 -38 14
-93 43 -368 123 -477 140 -19 3 -44 8 -56 10 -12 2 -45 7 -74 11 -29 4 -62 9
-74 12 -23 5 -452 13 -458 8z"/>
</g>
</svg>
